<?xml version="1.0" encoding="UTF-8" standalone="no"?>
<!-- Created with Inkscape (http://www.inkscape.org/) -->

<svg
   version="1.0"
   width="540.50098"
   height="640.30402"
   viewBox="0 0 540.501 640.304"
   id="Layer_1"
   xml:space="preserve"
   sodipodi:docname="RightHand.svg"
   inkscape:export-filename="LeftHand.svg"
   inkscape:export-xdpi="96"
   inkscape:export-ydpi="96"
   xmlns:inkscape="http://www.inkscape.org/namespaces/inkscape"
   xmlns:sodipodi="http://sodipodi.sourceforge.net/DTD/sodipodi-0.dtd"
   xmlns="http://www.w3.org/2000/svg"
   xmlns:svg="http://www.w3.org/2000/svg"><sodipodi:namedview
   id="namedview1"
   pagecolor="#ffffff"
   bordercolor="#000000"
   borderopacity="0.25"
   inkscape:showpageshadow="2"
   inkscape:pageopacity="0.0"
   inkscape:pagecheckerboard="0"
   inkscape:deskcolor="#d1d1d1"><inkscape:page
     x="0"
     y="0"
     width="540.50098"
     height="640.30402"
     id="page2"
     margin="0"
     bleed="0" /></sodipodi:namedview><defs
   id="defs2408"><inkscape:path-effect
     effect="spiro"
     id="path-effect3"
     is_visible="true"
     lpeversion="1" /></defs>
<g
   transform="matrix(-0.8746401,0,0,-0.8518511,506.62235,592.87107)"
   id="g2399">
	<polygon
   points="268.35,468.801 268.35,468.75 268.301,468.699 268.35,468.801 268.35,468.85 268.4,468.949 268.4,469 268.4,469.15 268.5,469.4 268.551,469.6 268.65,470.199 268.6,469.949 268.5,469.4 268.4,469 268.4,468.9 "
   style="fill-rule:evenodd"
   id="polygon2401" />
	<polyline
   stroke-miterlimit="10"
   points="149.85,543.6    149.75,545.25 149.6,546.801 149.55,548.35 149.5,549.801 149.55,551.301 149.6,552.699 149.85,555.449 150.35,558.1 150.7,559.4    151,560.6 151.45,561.85 151.9,563 152.4,564.15 152.9,565.199 154.2,567.35 154.9,568.4 155.6,569.35 156.45,570.35    157.25,571.25 158.15,572.15 159.05,572.949 160.1,573.801 161.1,574.551 163.3,576 165.7,577.35 167,578 168.25,578.551    179.15,579.301 181.1,578.85 183.15,578.301 185.1,577.699 185.95,577.4 186.65,577.051 187.9,576.449 188.35,576.15    188.7,575.801 189.85,575 192.65,571.199 193.65,568.65 194.7,565.85 195.15,564.449 195.55,563.1 195.95,561.85 196.25,560.65    196.6,559.551 196.9,558.5 197.2,557.551 197.4,556.65 197.7,555.85 197.9,555.1 198.1,554.449 198.25,553.85 198.45,553.35    198.6,552.9 198.7,552.551 198.75,552.25 199.65,549.65 200.35,547 200.95,544.301 201.3,541.551 201.8,541.449 201.95,540.85    202.1,540.1 202.3,539.301 202.45,538.4 202.7,537.5 202.95,536.5 203.25,535.449 203.5,534.25 203.9,533.1 204.25,531.801    204.65,530.5 205.05,529.051 205.55,527.6 206,526.051 206.55,524.449 207.05,522.75 208.2,519.449 209.3,516.199 210.4,513.15    211.45,510.15 214.75,498.199 214.7,496.65 215,495.4 215.3,493.85 215.5,493 215.65,492.051 216.05,489.949 216.55,487.699    216.85,486.5 217.1,485.15 217.7,482.35 218.3,479.25 218.7,477.699 219.05,476 219.85,472.449 220.3,470.65 220.7,468.699    221.15,466.75 221.55,464.65 222.05,462.6 222.5,460.4 223.5,455.85 224.05,453.551 224.55,451.1 225.65,446.051 228,435.949    230.25,426.051 231.35,421.199 232.45,416.4 234.6,406.9 236.45,400.4 238.45,393.9 239.55,390.699 240.65,387.449 241.85,384.25    242.45,382.65 242.75,381.85 242.9,381.449 243,381 245.55,375.65 246.2,374.65 246.7,373.85 246.95,373.551 247.15,373.301    247.35,373.1 247.45,372.949 247.95,372.75 248.1,372.75 248.2,372.699 248.4,372.6 248.7,372.6 248.85,372.6 248.95,372.551    249.25,372.551 249.4,372.551 249.5,372.5 250.15,372.6 250.75,372.699 251.45,372.9 252.15,373.15 252.65,373.4 253.1,373.6    253.6,373.9 253.75,374 253.85,374.051 254.05,374.15 254.8,374.65 258.5,382.75 260.6,392.25 262.45,401.65 264.1,411.051    265.5,420.301 266.7,429.551 267.65,438.699 268.4,447.801 268.9,456.801 268.551,457.4 269.551,481.551 270.1,488.65    270.75,495.199 271.45,501.699 272.2,508.199 273.051,514.65 274,521.15 275.051,527.6 276.15,534.051 277.301,540.449    277.4,540.6 277.4,540.75 277.45,540.85 277.45,540.9 277.45,541 277.45,541.301 277.551,541.699 277.6,541.801 277.6,541.85    277.6,541.949 277.6,542.15 277.7,542.699 277.7,543.301 277.95,545.551 278.15,547.551 278.25,548.449 278.35,549.4    278.551,551.4 278.65,552 278.7,552.301 278.7,552.551 278.801,553.699 279,556.1 279.301,558.801 279.45,560.199 279.551,561.65    279.75,563.199 279.85,564 279.9,564.4 279.9,564.75 280.2,568.051 280.551,571.1 280.801,574 281.051,576.75 281.25,579.35    281.45,581.9 281.6,584.25 281.75,586.5 281.801,588.6 282.15,594.25 282.551,599.85 283,605.449 283.551,611 284.051,613.801    284.65,616.551 285.051,617.949 285.5,619.25 286.5,621.85 287.25,623.4 288.051,624.85 288.9,626.25 289.75,627.5 290.75,628.801    291.75,629.949 292.801,631.051 293.85,632.051 295.051,633.1 296.25,634 297.5,634.85 298.801,635.6 300.2,636.35 301.65,636.949    303.15,637.551 304.65,638 306.25,638.449 307.801,638.699 309.35,638.801 310.85,638.699 312.35,638.551 313.801,638.15    315.25,637.65 316.65,636.949 318.9,635.75 320.9,634.4 322.75,632.949 324.4,631.4 325.95,629.75 327.301,628 328.5,626.15    329.5,624.1 330.4,622.051 330.801,621 331.1,619.85 331.65,617.6 331.95,615.15 332.2,612.699 332.2,610.051 332.2,608.75    332.1,607.35 331.75,604.5 332.35,596.801 332.801,589.1 333.2,581.5 333.45,573.949 333.6,570.25 333.551,566.5 333.4,562.75    333.15,558.949 332.95,555 332.75,550.85 332.551,546.551 332.25,542 332.2,539.801 332.1,537.65 332,535.551 331.9,533.5    331.85,531.6 331.75,529.699 331.7,527.9 331.6,526.15 331.6,524.551 331.551,522.949 331.551,521.449 331.45,520 331.45,518.65    331.45,517.35 331.45,516.15 331.45,515.6 331.4,515 331.4,514.65 331.4,514.1 331.35,513.4 331.25,512.449 331.15,511.449    331.051,510.199 330.9,508.85 330.7,507.25 330.6,505.699 330.551,505 330.45,504.301 330.35,503.051 330.35,502.801    330.301,502.5 330.2,501.9 330.2,501.449 330.15,500.949 330.051,500.15 330.051,499.5 330.051,499.25 330,498.949 330,498.801    330.301,494.6 330.4,490.35 330.301,486.1 329.95,481.801 329.85,480.051 329.65,478.1 329.551,476.1 329.35,473.949    329.25,471.75 329.051,469.4 328.9,466.949 328.7,464.35 328.6,461.699 328.4,458.949 328.25,456.1 328.051,453.051 327.95,450    327.75,446.75 327.551,443.449 327.35,440 327.25,436.6 327.051,433.25 326.95,430 326.75,426.75 326.65,423.65 326.6,422.15    326.5,420.6 326.4,417.65 326.4,416.949 326.4,416.6 326.35,416.199 326.25,414.699 326.2,412.5 326.2,411.4 326.2,410.85    326.15,410.25 326.1,405.85 326.2,403.699 326.25,401.5 326.4,397.199 326.801,393 327.25,388.699 327.85,384.4 328.551,380    328.95,378.699 332.6,364.199 336.95,359.75 337.5,359.699 337.85,359.75 338.1,359.9 338.25,360.1 338.65,361.25 339,362.449    339.4,363.801 339.801,365.15 340.301,366.65 340.7,368.199 341.2,369.85 341.65,371.551 341.95,372.5 342.2,373.4 342.7,375.35    343.301,377.4 343.801,379.449 344.4,381.65 345,383.9 345.6,386.25 346.2,388.699 350.801,406.949 351.301,407.199    352.75,412.699 354.1,417.85 355.4,422.801 356.551,427.449 357.7,431.9 358.75,436 359.75,439.9 360.65,443.5 361.551,446.75    362.35,449.75 363.15,452.6 363.85,455.25 364.551,457.801 365.2,460.1 365.801,462.25 366.35,464.199 366.9,466.051    367.4,467.699 367.85,469.199 368.25,470.449 368.65,471.65 369,472.6 369.301,473.4 369.551,473.949 370.1,474.301    370.85,480.551 371.7,486.65 372.75,492.75 373.9,498.699 375.25,504.65 376.7,510.5 378.35,516.35 380.1,522.051 382.1,527.801    384.2,533.4 386.45,539 388.801,544.449 391.35,549.9 394.051,555.25 396.9,560.6 399.85,565.801 400.801,567.051 401.801,568.1    402.9,569.051 404.051,569.9 405.301,570.65 406.65,571.301 408.051,571.85 409.5,572.301 411.45,572.801 413.301,573.1    415.15,573.25 416.85,573.25 418.6,573.15 420.2,572.85 421.801,572.449 423.301,571.85 424.85,571.199 426.25,570.35    427.65,569.4 428.95,568.25 430.25,567 431.45,565.6 432.65,564.051 433.7,562.301 434.7,560.25 435,558.85 435.25,557.199    435.45,555.449 435.6,553.449 435.75,551.35 435.801,549 435.85,546.5 435.801,543.801 435.801,541.15 435.7,538.551 435.6,536.15    435.45,533.801 431.301,505.35 430.85,505.051 430.15,501.15 429.45,497.35 429.15,495.551 429,494.65 428.801,493.699    428.5,491.949 428.45,491.551 428.35,491.1 428.15,490.199 428.051,489.4 428,489 427.9,488.551 427.6,486.9 427.1,483.75    426.9,482.25 426.65,480.75 426.45,479.301 426.35,478.6 426.35,478.449 426.301,478.25 426.2,477.85 425.75,474.25    425.35,470.699 425.2,469 425,467.25 424.7,463.801 424.5,460.5 424.45,458.9 424.35,457.25 424.25,454.1 424.25,452.551    424.2,450.949 421.95,435.301 421.65,433.199 421.35,431.15 421.051,429.199 421.051,429 421,428.75 420.9,428.25 420.7,427.25    420.4,425.4 420.1,423.6 419.801,421.9 419.65,421.1 419.45,420.25 419.35,419.5 419.2,418.699 418.9,417.199 418.301,414.4    418.1,413.1 417.801,411.85 417.7,411.301 417.551,410.699 417.25,409.551 417,408.15 416.65,406.551 416.301,404.699 415.9,402.6    415.5,400.35 415.051,397.85 414.6,395.1 414.051,392.1 413.65,389.449 413.45,388.199 413.2,386.9 412.801,384.5 412.6,383.4    412.5,382.85 412.35,382.25 411.95,380.199 411.551,378.25 411.15,376.449 410.95,375.65 410.85,375.25 410.801,375.051    410.7,374.801 410.6,373.801 410.5,372.85 410.4,372.051 410.301,371.35 410.301,370.85 410.2,370.4 410.2,370.1 410.1,369.85    410,369.4 409.9,368.85 409.801,368.199 409.65,367.449 409.551,366.699 409.45,365.75 409.15,363.699 408.95,361.6 408.75,359.65    407.35,354.9 406.051,350.051 404.95,345.1 403.95,339.949 403.15,334.801 402.5,329.5 402,324.15 401.65,318.6 402.35,317.801    404.551,317.6 406.5,318.199 408.45,319.5 410.301,320.75 413.95,323.449 415.75,324.9 417.45,326.35 419.15,327.9 420.75,329.4    424,332.699 427.051,336.1 428.551,337.9 429.95,339.699 432.7,343.449 435.1,345.301 437.35,347.25 439.5,349.25 441.551,351.301    443.6,353.5 445.45,355.75 447.301,358.051 448.95,360.4 461.15,375.9 461.15,376.6 467.85,384.65 468.5,384.801 474.051,391.9    479.551,399.051 485.051,406.301 490.45,413.6 491.4,415 492.25,416.35 493.1,417.75 493.801,419.15 494.301,419.85 494.7,420.551    495.1,421.301 495.4,422 496.25,423.949 497.1,425.699 498.051,427.449 499,429.051 500.051,430.6 501.15,432.051 502.35,433.449    503.551,434.699 504.9,435.949 506.25,437.051 507.7,438.1 509.15,439.051 510.75,440 512.35,440.75 514.051,441.5 515.75,442.051    517.65,442.551 519.449,442.75 521.25,442.699 523.051,442.35 524.65,441.949 526.1,441.4 527.551,440.75 528.85,439.9 530.15,439    531.301,437.949 532.449,436.801 533.449,435.5 535.15,433.051 536.5,430.4 537.449,428.1 538.1,425.65 538.699,422.85    538.9,421.449 538.949,420 539,417.199 538.9,415.801 538.699,414.35 538.25,411.551 537.449,408.75 537,407.4 536.449,406    535.1,403.199 530,393.4 527.5,388.6 524.9,383.85 519.801,374.551 519.2,373.449 518.9,372.9 518.551,372.301 517.25,370    514.65,365.5 512.15,361.1 509.551,356.75 504.45,348.25 501.95,344.1 499.35,340 496.85,335.949 494.25,331.949 493.5,330.35    491.9,328 490.15,325.65 488.4,323.4 486.45,321.25 484.5,319.199 482.4,317.25 480.25,315.4 477.95,313.6 477.4,312.4    476.75,311.199 476,310.1 475.051,309 473.6,307.4 472.15,305.699 469.35,302.15 466.85,298.5 464.45,294.65 462.35,290.7    460.45,286.551 458.75,282.301 458,280.1 457.25,277.801 456.4,275.15 456.2,274.5 456.1,274.2 456.1,274.15 456.051,274.05    455.95,273.85 455.75,273.25 455.5,272.65 455.45,272.45 455.35,272.2 455.15,271.75 454.75,270.95 454.4,270.25 454.25,269.95    454.051,269.6 453.75,269 453.65,268.75 453.5,268.45 453.15,267.35 452.95,266.25 452.9,266 452.801,265.75 452.65,265.3    452.65,265.2 452.65,265.15 452.6,265.05 452.5,264.8 452.301,264.4 451.6,263.05 450.801,261.85 450,260.8 449.051,259.9    448.9,258.85 448.7,257.6 448.5,256.25 448.2,254.7 447.95,253.05 447.6,251.25 447.25,249.3 446.85,247.2 446.45,244.8    446.301,243.8 446.1,242.85 445.95,241.95 445.75,241.1 445.65,240.35 445.45,239.65 445.35,239 445.2,238.4 445.2,238.2    445.2,238.1 445.2,238.05 445.15,237.95 445.051,237.5 445.051,237.35 445,237.15 444.9,236.8 444.801,236.4 444.801,236.3    444.75,236.25 443.45,228.2 439.35,207.45 438.85,204.6 438.75,203.95 438.6,203.25 438.301,201.85 438.1,200.55 438,199.9    437.85,199.2 437.35,196.55 436.95,194.05 436.45,191.6 436.051,189.25 435.85,188.1 435.6,186.9 435.551,186.4 435.45,185.85    435.25,184.75 434.85,182.65 434.551,180.6 434.551,180.4 434.5,180.15 434.4,179.65 434.2,178.65 433.9,176.8 433.6,175    433.35,173.3 433.051,171.65 432.65,171.25 431,159.45 430.65,159.05 430.65,158.85 430.6,158.6 430.5,158.1 430.301,157.1    429.9,155.1 429.1,151.15 427.5,143.45 426.801,139.7 426,136 425.25,132.4 424.45,128.8 424.25,127.7 423.95,126.55 423.6,125.5    423.15,124.4 422.7,123.4 422.15,122.35 421.6,121.35 420.95,120.3 419.35,117.6 417.85,114.9 416.65,112.2 416.1,110.85    415.6,109.45 414.801,106.75 414.2,104 413.801,101.3 413.6,98.5 413.7,95.8 413.801,94.4 413.95,93 414.45,90.3 414.75,88.9    415.1,87.5 416,84.8 417.1,82 417.75,80.6 418.45,79.2 419.95,76.4 422.65,70 423.4,68.35 424.1,66.75 424.75,65.3 425.301,63.9    425.85,62.7 426.35,61.55 426.801,60.6 427.2,59.65 427.551,58.75 427.65,57.75 427.5,56.75 427.051,55.7 426.45,54.65    425.551,53.5 424.4,52.35 422.95,51.15 421.35,49.95 419.45,48.7 417.35,47.45 414.95,46.1 412.35,44.8 409.5,43.4 406.4,42    403,40.55 400.051,39.35 396.95,38.15 393.75,36.95 390.35,35.7 386.9,34.5 383.25,33.25 379.5,32 375.551,30.7 371.551,29.45    367.35,28.15 363.051,26.85 358.6,25.55 354.051,24.25 349.35,22.95 344.5,21.65 339.5,20.25 335.2,19.15 330.9,18.05    328.801,17.55 328.301,17.45 327.75,17.3 326.65,17 322.35,15.9 318.15,14.9 313.95,13.85 312.95,13.65 312.45,13.55 311.9,13.4    309.801,12.9 305.65,11.9 303.65,11.5 302.65,11.3 302.15,11.2 301.6,11.05 297.551,10.15 293.551,9.3 289.5,8.4 289.051,8.35    288.551,8.25 287.551,8.05 285.551,7.65 281.6,6.85 277.7,6.1 273.801,5.3 270.45,4.7 268.85,4.45 267.25,4.15 264.25,3.65    261.35,3.15 260.05,3 258.7,2.8 258.1,2.75 257.45,2.65 256.2,2.45 253.9,2.15 251.75,1.85 250.75,1.8 249.8,1.7 248.9,1.65    248.05,1.55 247.3,1.55 246.6,1.5 245.95,1.5 245.35,1.5 244.85,1.6 244.4,1.6 243.7,1.7 243.45,1.8 243.25,1.9 243.2,2    243.1,2.05 243,2.15 242.7,3.3 242.25,4.3 241.85,5.2 241.35,6.15 240.85,7.2 240.25,8.25 239,10.65 238.35,11.95 237.6,13.25    236.9,14.7 236.1,16.2 235.3,17.75 234.4,19.35 233.55,21.05 232.6,22.8 231.65,24.6 230.6,26.45 223.15,40.45 221.35,41.55    220.45,42.1 219.5,42.6 215.9,44.75 212.35,46.95 210.65,48.1 208.9,49.2 207.55,49.8 206.9,50.1 206.2,50.35 205.6,50.7    204.95,51 203.7,51.6 203.15,52 202.55,52.35 201.4,53.05 200.3,53.8 199.2,54.55 199,54.8 198.75,55 198.25,55.4 198.05,55.65    197.8,55.85 197.3,56.25 196.45,57.15 195.55,58.05 194.8,59.05 194.05,60.05 193.35,61.1 192.65,62.15 189.35,65.4 180.5,74.15    172.3,83.15 165.35,90.05 145.85,112.25 143.85,114.3 139.45,118.3 137.75,119.85 133.9,123.7 129.95,127.4 126,131.05    121.95,134.5 121.5,134.6 106.6,150 99.1,163.5 94.65,177.95 93.15,181.7 91,187.85 89.85,190.85 88.5,193.75 87.15,196.65    85.65,199.45 84.1,202.25 82.45,204.95 79,210.3 77.15,212.9 75.2,215.4 73.2,217.9 71.05,220.3 68.9,222.7 66.55,225 66.5,225.2    66.25,225.5 66.1,225.75 65.9,226.05 65.65,226.4 65.3,226.75 64.65,227.75 64.25,228.3 63.75,228.85 63.3,229.55 62.75,230.25    62.2,231 61.55,231.75 60.3,233.6 59.7,234.5 59.05,235.3 58.5,236.15 57.95,236.9 56.9,238.35 56.05,239.7 55.25,240.95    54.6,242.1 53.95,243.05  "
   id="polyline2403"
   style="fill:none;stroke:#000000;stroke-width:3;stroke-linecap:square;stroke-miterlimit:10" />
	<polyline
   stroke-miterlimit="10"
   points="53.95,243.05    53.25,244.7 52.45,246.25 51.65,247.8 50.7,249.25 49.8,250.7 48.75,252.05 46.55,254.6 41.6,259.95 39.1,262.6 36.5,265.15    31.35,270.2 26,275.15 20.65,280 15.1,284.7 9.45,289.25 3.7,293.65 3.15,294.6 2.7,295.35 2.4,296 2.3,296.25 2.15,296.4    1.95,297.25 1.75,298.051 1.6,298.85 1.5,299.65 1.5,301.6 1.7,303.449 1.9,304.4 2.15,305.301 2.45,306.199 2.8,307 3.5,308.301    4.25,309.449 5.05,310.551 5.9,311.5 6.85,312.449 7.85,313.199 8.9,313.9 10,314.449 14.1,316.301 18.1,317.85 22.2,319.15    26.2,320.15 30.3,320.949 32.35,321.25 34.35,321.4 38.45,321.65 42.45,321.6 46.55,321.35 50.65,320.801 54.75,320.051    56.8,319.551 58.8,318.949 62.9,317.65 67,316.051 71.1,314.25 75.2,312.1 76.8,311.301 78.45,310.4 80.2,309.5 82,308.449    83.85,307.5 84.75,307.051 85.55,306.551 87.1,305.65 88.5,304.75 89.85,304 90.5,303.65 91.05,303.25 92.1,302.551 92.6,302.25    93,301.9 97.4,296.95 101.1,289.95 105.2,277 106.45,274.8 106.8,274.3 107.05,273.85 107.3,273.45 107.45,273.1 107.6,272.85    107.7,272.65 107.75,272.5 107.75,272.4 110.55,268.1 113.3,264.8 117.4,260.75 118.7,259.4 120.2,257.95 121.9,256.4    123.8,254.65 124.85,253.8 125.95,252.9 128.25,250.95 130.75,249 133.45,246.85 137.05,244.2 140.75,241.5 143.85,239.35    151.95,239.1 154.7,241.55 157.25,244.05 159.8,246.65 162.15,249.3 164.5,252.05 166.65,254.9 168.8,257.85 170.75,260.85    170.8,260.95 170.85,261.05 171,261.25 171.15,261.45 171.3,261.65 171.4,261.8 171.55,262 171.65,262.15 171.85,262.4 172,262.6    172.2,262.85 172.35,263.05 173.2,264.2 173.85,265.1 174.15,265.5 174.35,265.8 174.55,266.1 174.65,266.3 176.3,269 177.7,271.7    178.95,274.5 179.5,275.95 179.95,277.35 180.9,280.301 181.6,283.301 182.15,286.4 182.5,289.5 183.05,295.9 183.4,302.25    183.65,308.65 183.7,314.949 183.65,321.35 183.4,327.65 183.05,333.949 182.5,340.25 181.9,346.6 181.1,352.9 180.15,359.199    179,365.5 177.75,371.801 176.35,378.1 174.8,384.4 173.05,390.65 156.1,501.199 154.35,511.801 152.7,522.4 151.2,533    149.85,543.6  "
   id="polyline2405"
   style="fill:none;stroke:#000000;stroke-width:3;stroke-linecap:square;stroke-miterlimit:10" />
</g>
<path
   style="fill:#000000"
   d="m 163.03977,390.54584 -34.85678,74.58601"
   id="path3"
   inkscape:path-effect="#path-effect3"
   inkscape:original-d="m 163.03977,390.54584 -34.85678,74.58601"
   transform="matrix(-1,0,0,1,540.50087,0)" /><path
   style="fill:#000000"
   id="path4"
   d="m 374.86427,388.1431 c 3.60993,1.26529 6.83379,3.37943 10.04621,5.41053 2.77471,1.83959 5.62286,3.63904 8.03125,5.96097 1.51586,1.46144 1.74794,1.86694 3.0672,3.52498 2.27506,2.9406 4.23236,6.1011 6.03722,9.34584 1.38212,2.51242 2.50855,5.15477 3.69072,7.76454 1.20985,2.6282 2.38784,5.27076 3.5935,7.90097 1.02786,2.28025 1.982,4.59232 2.99049,6.88103 1.13382,2.5617 2.28641,5.11351 3.36985,7.69711 1.19467,3.01564 2.1516,6.11541 2.88103,9.27445 0.38037,1.71798 0.65456,3.45504 0.62865,5.21699 0,0 -3.28,1.651 -3.28,1.651 v 0 c 0.14932,-1.77365 -0.121,-3.45357 -0.46174,-5.1936 -0.10911,-0.49329 -0.20788,-0.98897 -0.32732,-1.47985 -0.64232,-2.64004 -1.53576,-5.21315 -2.51598,-7.74438 -1.0893,-2.57754 -2.27959,-5.10866 -3.42617,-7.66081 -0.98468,-2.29798 -1.94988,-4.60432 -2.96827,-6.88777 -1.1753,-2.64517 -2.35134,-5.28983 -3.55989,-7.91996 -1.17106,-2.60505 -2.36755,-5.20183 -3.68663,-7.73569 -1.74767,-3.25048 -3.63895,-6.42818 -5.88298,-9.36578 -1.36463,-1.69047 -1.50136,-1.96919 -3.0539,-3.46592 -2.3869,-2.30109 -5.15707,-4.15255 -7.91784,-5.96591 -3.2702,-2.02728 -6.60566,-4.07663 -10.3397,-5.1327 z" /><path
   style="fill:#000000"
   id="path5"
   d="m 291.63363,274.61614 c 0.12315,0.025 0.24685,0.0475 0.36944,0.0751 0.77744,0.17515 1.54267,0.35354 2.333,0.46864 1.02163,0.14879 1.93547,0.23455 2.97619,0.34655 3.12311,0.25635 6.25462,0.37673 9.38269,0.55149 0.82592,0.0461 1.65254,0.0834 2.4772,0.14846 0.92534,0.073 1.84796,0.17705 2.77195,0.26557 2.76424,0.30823 5.53559,0.57614 8.28884,0.97616 0.75449,0.10961 3.96516,0.64406 4.79102,0.80044 0.69534,0.13166 1.38588,0.28755 2.07883,0.43132 0.6116,0.14018 1.22445,0.27503 1.8348,0.42054 1.21506,0.28968 1.92706,0.47071 3.1116,0.8331 1.3168,0.40284 2.61535,0.86558 3.91085,1.33115 0.38438,0.15677 0.76918,0.3125 1.15312,0.47032 0.82887,0.3407 1.32541,0.54181 2.1338,0.91234 0.89953,0.41231 1.77753,0.86193 2.64912,1.32954 1.45751,0.73304 2.8208,1.62648 4.15882,2.5549 0.77212,0.56349 1.47759,1.22692 2.02796,2.01235 0.0932,0.13298 0.17587,0.27301 0.26381,0.40952 0.266,0.45015 0.44517,0.94102 0.63506,1.42567 0,0 -3.22621,1.78263 -3.22621,1.78263 v 0 c -0.14561,-0.47422 -0.28699,-0.9521 -0.54299,-1.382 -0.0805,-0.1299 -0.15556,-0.26329 -0.24141,-0.3897 -0.51702,-0.76122 -1.19351,-1.39311 -1.9218,-1.94876 -1.28801,-0.95799 -2.64342,-1.81654 -4.06703,-2.56051 -0.52454,-0.28498 -1.11832,-0.61217 -1.64999,-0.88226 -1.35701,-0.68939 -2.75652,-1.28914 -4.17159,-1.84833 -1.26342,-0.48344 -2.5302,-0.95581 -3.82032,-1.36466 -1.57937,-0.50052 -3.18261,-0.92482 -4.78718,-1.33527 -1.85202,-0.41818 -2.32873,-0.54554 -4.23551,-0.89218 -3.5445,-0.64438 -7.12405,-1.08218 -10.70985,-1.41794 -2.2978,-0.15742 -3.103,-0.22111 -5.33253,-0.34316 -3.18384,-0.17429 -6.37042,-0.28825 -9.55543,-0.43717 -1.55533,-0.0733 -1.81767,-0.0577 -3.21183,-0.20801 -1.39655,-0.15052 -0.59056,-0.0842 -1.79661,-0.26765 -0.56204,-0.0855 -0.62621,-0.0826 -1.12013,-0.11884 z" /><path
   style="fill:#000000"
   id="path6"
   d="m 348.31128,290.04814 c 0.11269,0.42187 0.29664,0.81857 0.45923,1.22227 0.0939,0.20999 0.18305,0.42207 0.30726,0.61642 0.0951,0.0938 0.20043,0.27866 0.32234,0.33384 0.0155,0.0164 0.0309,0.0328 0.0464,0.0492 0,0 -3.20568,1.96882 -3.20568,1.96882 v 0 c -0.0105,-0.009 -0.0209,-0.0181 -0.0314,-0.0271 -0.13005,-0.13921 -0.25439,-0.28595 -0.36822,-0.43844 -0.1371,-0.21821 -0.23297,-0.45569 -0.32302,-0.69659 -0.13964,-0.40829 -0.30832,-0.80588 -0.47285,-1.20456 z" /><path
   style="fill:#000000"
   id="path7"
   d="m 283.48075,275.6378 c -0.87334,-0.0364 -1.74739,-0.0331 -2.62127,-0.0295 -0.99149,0.008 -1.98289,-0.007 -2.9744,-0.002 -1.07905,-0.0234 -2.15716,-0.0734 -3.23541,-0.11883 -1.15733,-0.0403 -2.31478,-0.0664 -3.47279,-0.0733 -1.22967,0.0176 -2.45667,0.10033 -3.68387,0.17343 -1.34568,0.0682 -2.69246,0.10779 -4.03908,0.15389 -0.2029,0.007 -0.40571,0.0173 -0.6087,0.0206 -2.0676,0.0332 0.86659,-0.0372 -1.49411,-0.006 -0.8368,0.011 -1.67488,0.0604 -2.51061,0.10139 -1.85044,0.1181 -3.70103,0.23211 -5.55068,0.36286 -1.86247,0.12734 -3.72214,0.28844 -5.58186,0.45018 -1.79589,0.15585 -3.5982,0.20183 -5.39607,0.33094 -0.3349,0.0354 -0.67021,0.0671 -1.0047,0.10619 -0.67862,0.0793 -1.32287,0.16578 -1.99517,0.28845 -0.89645,0.16358 -1.77692,0.39201 -2.6577,0.62275 -1.93823,0.52053 -3.85441,1.117 -5.79777,1.61822 -1.37235,0.34463 -2.75574,0.63203 -4.1521,0.85886 -1.25405,0.19984 -2.50161,0.435 -3.73812,0.72405 -0.89631,0.22931 -1.78268,0.49152 -2.65459,0.80055 -0.77561,0.28375 -1.5403,0.59653 -2.30947,0.89744 -0.46243,0.19189 -0.93138,0.36999 -1.37934,0.59427 -0.21815,0.0863 -0.42834,0.18989 -0.64356,0.28304 0,0 2.90699,-2.30254 2.90699,-2.30254 v 0 c 0.21357,-0.0962 0.42844,-0.18949 0.63995,-0.29017 0.44802,-0.19483 0.90294,-0.37284 1.35966,-0.54626 0.7706,-0.29206 1.53134,-0.61002 2.31012,-0.88023 0.86764,-0.28595 1.74962,-0.52616 2.63795,-0.73908 0.28315,-0.0624 0.80179,-0.1788 1.08404,-0.23255 0.85833,-0.16345 1.72937,-0.25327 2.58747,-0.4185 1.39097,-0.25898 2.76939,-0.57835 4.14935,-0.89002 1.9359,-0.48095 3.85064,-1.04064 5.76618,-1.59623 0.75343,-0.19226 1.00023,-0.26628 1.75622,-0.41639 1.29161,-0.25646 2.60086,-0.41676 3.91195,-0.53145 1.80748,-0.13945 3.6191,-0.21934 5.42683,-0.35709 1.85888,-0.14503 3.71512,-0.31928 5.57582,-0.43888 1.86411,-0.11651 3.72676,-0.25105 5.5899,-0.38079 1.54966,-0.0524 3.09914,-0.11524 4.64965,-0.13694 1.34575,-0.0322 2.69013,-0.10228 4.03479,-0.16371 1.23655,-0.0711 2.47232,-0.18439 3.71214,-0.16452 1.15968,0.0124 2.3201,0.0133 3.47813,0.0833 1.08429,0.0405 2.1691,0.0592 3.25369,0.088 0.99311,0.006 1.98612,-0.0103 2.97921,-0.002 0.90092,0.004 1.80193,0.005 2.70236,-0.0294 z" /><path
   style="fill:#000000"
   id="path8"
   d="m 209.40668,288.44813 c -1.22756,0.12142 -2.44079,0.33543 -3.64444,0.60119 -1.2207,0.28309 -2.41423,0.66459 -3.58384,1.11192 -1.2947,0.45384 -2.54823,1.01164 -3.78861,1.59515 -1.28658,0.66462 -2.55988,1.35272 -3.83019,2.04758 -0.95677,0.53067 -1.93564,1.01905 -2.89027,1.55355 -0.25429,0.14238 -1.01349,0.57596 -0.76111,0.43024 0.74659,-0.43109 1.49584,-0.85756 2.24376,-1.28633 -1.52272,0.9148 -2.9948,1.90979 -4.49061,2.86721 -1.48592,0.98554 -2.99244,1.93902 -4.48192,2.91914 -1.12818,0.74737 -2.24945,1.50506 -3.35355,2.28762 -0.97718,0.67876 -1.85166,1.48765 -2.74994,2.26393 -1.2303,1.0198 -2.5528,1.91828 -3.87264,2.81608 -1.01555,0.68945 -2.03577,1.37365 -3.01621,2.11269 -0.82898,0.64606 -1.53613,1.42328 -2.21057,2.22433 -0.79897,1.00401 -1.65833,1.95568 -2.5394,2.88751 -0.83616,0.85705 -1.70453,1.6821 -2.57204,2.50721 -0.73719,0.70869 -1.50445,1.38457 -2.29254,2.03584 -0.64703,0.53978 -1.32811,1.03214 -2.04823,1.46893 -1.64492,1.04268 -3.3164,2.00235 -5.10649,2.749 -0.22338,0.0931 -0.44992,0.15337 -0.6882,0.18737 0,0 2.96029,-2.24856 2.96029,-2.24856 v 0 c 0.21051,-0.0639 0.41931,-0.13291 0.62086,-0.22199 1.33604,-0.56682 4.23868,-2.2056 -1.19363,0.84502 0.73543,-0.41816 1.43474,-0.88683 2.08988,-1.4238 0.79701,-0.65283 1.59045,-1.31106 2.33307,-2.02645 0.87574,-0.81474 1.73804,-1.64507 2.58206,-2.49249 0.89545,-0.91023 1.76832,-1.84332 2.54414,-2.85959 0.66204,-0.81584 1.34732,-1.61521 2.15869,-2.28901 0.98911,-0.78866 2.06835,-1.45498 3.10788,-2.17389 1.30179,-0.87525 2.60508,-1.75432 3.81804,-2.75147 0.91137,-0.7689 1.76905,-1.6051 2.74431,-2.29526 1.1159,-0.80149 2.25848,-1.56518 3.40479,-2.32235 1.50704,-0.9894 3.0355,-1.94527 4.53592,-2.94479 1.48633,-0.95058 2.94088,-1.95008 4.44963,-2.86521 0.72519,-0.42021 3.15845,-1.85033 4.51604,-2.60433 0.71433,-0.39674 1.44237,-0.76626 2.16084,-1.15527 0.24589,-0.13314 0.49036,-0.26889 0.73553,-0.40334 1.28628,-0.71379 2.58524,-1.40454 3.8974,-2.06958 1.24848,-0.56886 2.51396,-1.09731 3.80201,-1.57075 1.17503,-0.42735 2.36808,-0.80205 3.59443,-1.05406 0.67699,-0.13969 0.7138,-0.15265 1.39947,-0.27236 0.79566,-0.13891 1.60009,-0.23762 2.38439,-0.43501 z" /><path
   style="fill:#000000"
   id="path9"
   d="m 113.0908,371.58658 c 0.28555,-1.04024 0.54342,-2.08843 0.81499,-3.13261 0.33791,-1.31614 0.79992,-2.59513 1.2041,-3.89145 0.38165,-1.34499 0.72012,-2.70148 1.08263,-4.0517 0.1943,-0.68701 0.39151,-1.37566 0.66491,-2.03636 0.1776,-0.42918 0.25772,-0.57502 0.46046,-0.98595 0.53781,-0.9543 1.23003,-1.80733 1.87877,-2.68629 0.74529,-1.03158 1.52822,-2.03318 2.3386,-3.01426 0.77397,-0.93945 1.67252,-1.76754 2.55813,-2.59966 1.00931,-0.98851 2.08243,-1.90728 3.1816,-2.7936 0.91242,-0.72639 1.76522,-1.53524 2.53362,-2.41348 0.16401,-0.18746 0.31884,-0.38276 0.47826,-0.57414 1.04075,-1.33432 2.13482,-2.62576 3.2784,-3.87285 1.04646,-1.14719 2.25809,-2.12155 3.4384,-3.12424 1.75783,-1.5144 3.60588,-2.91779 5.46163,-4.30859 2.1066,-1.56303 4.32236,-2.96958 6.51563,-4.40595 1.07465,-0.71312 2.13846,-1.44135 3.14633,-2.24661 0.57111,-0.45576 1.14894,-0.90345 1.70837,-1.37361 0.21696,-0.17196 0.41627,-0.36383 0.61935,-0.55144 0,0 3.44403,-1.42502 3.44403,-1.42502 v 0 c -0.20023,0.21201 -0.42196,0.40402 -0.64147,0.59579 -0.58262,0.47899 -1.17149,0.94986 -1.77265,1.40599 -0.24355,0.19681 -0.57361,0.46642 -0.82106,0.6542 -0.79659,0.60448 -1.65576,1.12083 -2.47639,1.69103 -2.22863,1.42737 -4.47669,2.83203 -6.60045,4.41397 -1.81948,1.36878 -3.63459,2.74621 -5.35331,4.24146 -1.1605,1.00198 -2.3482,1.97689 -3.42069,3.07513 -1.16235,1.21772 -2.25645,2.49852 -3.27065,3.84277 -0.36486,0.46053 -0.54101,0.70073 -0.93687,1.13093 -0.15408,0.16745 -0.31796,0.32561 -0.4776,0.48778 -0.49665,0.50451 -0.99391,1.01166 -1.56276,1.4369 -1.09543,0.86594 -2.16477,1.76435 -3.15585,2.74982 -0.87627,0.84401 -1.80321,1.64184 -2.59337,2.56969 -0.81018,0.96243 -1.58356,1.95212 -2.31133,2.97859 -0.63795,0.87257 -1.31853,1.71619 -1.89531,2.6317 -0.2196,0.40685 -0.29389,0.5234 -0.47855,0.95226 -0.28129,0.65326 -0.4873,1.33658 -0.6993,2.01423 -0.39906,1.35422 -0.75887,2.71909 -1.13386,4.07996 -0.0681,0.24949 -0.13201,0.50016 -0.20434,0.74846 -0.30379,1.04288 -0.70676,2.05592 -0.96006,3.11396 -0.27251,1.0119 -0.53274,2.02813 -0.68737,3.06602 z" /><path
   style="fill:#000000"
   id="path10"
   d="m 154.51546,323.88203 c 0.43978,-0.41664 0.87613,-0.83762 1.26266,-1.30481 0.0405,-0.055 0.0811,-0.1099 0.12163,-0.16484 0,0 3.40038,-1.48255 3.40038,-1.48255 v 0 c -0.0415,0.0647 -0.0829,0.1294 -0.12442,0.19409 -0.36484,0.47855 -0.79326,0.89746 -1.21082,1.32931 z" /><path
   style="fill:#000000;stroke-width:0.374804"
   d="m 420.17132,447.79945 c 2.14862,-7.05768 6.40546,-18.12505 8.7502,-22.74969 4.02691,-7.94244 9.78963,-16.08061 15.6743,-22.13539 3.32617,-3.42232 11.11709,-13.8136 13.15806,-17.54981 3.37175,-6.17232 5.15202,-8.50603 11.24775,-14.74434 9.32328,-9.54135 19.70684,-18.74187 29.65569,-26.27689 4.4685,-3.38434 5.31671,-4.82033 5.02127,-8.50084 -0.35566,-4.43086 -2.93405,-7.81311 -7.592,-9.95898 -11.49396,-5.29514 -24.3092,-6.81202 -36.356,-4.30329 -7.23338,1.50634 -19.14141,6.70616 -29.81443,13.01891 -6.09808,3.60683 -8.80591,7.49776 -12.13065,17.43078 -1.09432,3.26942 -2.4349,6.64967 -2.97905,7.51165 -0.54415,0.862 -0.98936,1.6642 -0.98936,1.78268 0,0.11848 -0.69957,1.2603 -1.55459,2.53737 -2.15999,3.2262 -10.43262,11.30533 -16.34789,15.96551 -6.15832,4.85165 -14.23774,10.53131 -14.98098,10.53131 -0.30721,0 1.94903,1.6631 5.01386,3.69578 6.21323,4.12077 8.72739,6.53696 12.351,11.86968 3.09426,4.5537 4.44594,7.07348 8.03631,14.98108 6.11569,13.4695 10.49147,23.88434 11.45846,27.27243 0.54337,1.90383 1.02457,3.5047 1.06933,3.55749 0.0448,0.0528 0.6337,-1.71815 1.30872,-3.93544 z"
   id="path11" /><path
   style="fill:#000000;stroke-width:0.374804"
   d="m 420.716,445.52612 c 2.45123,-7.4774 6.26764,-17.08929 8.57345,-21.59282 3.51789,-6.87085 8.71613,-14.13096 15.45212,-21.58113 4.13943,-4.57832 10.32965,-12.94945 13.2979,-17.98296 3.77015,-6.39336 5.46787,-8.49048 12.92389,-15.96433 7.50676,-7.52471 15.17481,-14.43352 22.28841,-20.08154 9.64427,-7.65732 10.13984,-8.22357 10.1421,-11.58882 0.004,-6.09915 -3.47301,-9.54417 -12.95237,-12.83287 -10.63871,-3.69091 -22.64451,-4.26074 -32.75607,-1.55471 -8.49471,2.27334 -25.6118,10.45813 -31.26313,14.94893 -3.13997,2.49517 -5.55243,6.7618 -8.49264,15.01995 -3.23674,9.09102 -5.16625,12.05034 -12.59971,19.32438 -5.80189,5.67745 -9.92238,9.08004 -17.37433,14.34721 -2.78293,1.96702 -5.38434,3.81007 -5.78093,4.09568 -0.676,0.4868 -0.55883,0.63276 1.87402,2.33446 5.53436,3.87113 8.29121,6.03399 10.16226,7.97272 2.46421,2.55335 5.85721,7.49937 8.28805,12.0816 3.65109,6.88249 13.19877,28.79853 15.21642,34.92827 l 1.19555,3.63212 z"
   id="path12" /><path
   style="fill:#ff7d6d;fill-opacity:1;stroke-width:0.374804"
   d="m 421.09534,444.46551 c 6.4928,-19.34729 11.65023,-28.65583 22.76317,-41.08481 5.02175,-5.61643 11.03893,-13.68328 14.18096,-19.01149 3.7943,-6.43432 5.46869,-8.48757 13.3018,-16.31162 7.99496,-7.98571 14.21305,-13.55661 22.49649,-20.15504 8.98607,-7.15812 9.55751,-7.83034 9.55751,-11.24312 0,-4.39296 -2.24689,-7.81819 -6.63601,-10.11613 -11.03693,-5.77845 -26.82592,-7.47411 -39.07383,-4.19636 -10.22076,2.73526 -28.04187,11.66471 -32.67853,16.37392 -2.49046,2.52943 -4.64418,6.66727 -7.22109,13.87357 -3.25239,9.09524 -5.02011,11.78298 -12.64603,19.22761 -6.13962,5.99366 -12.55201,11.14867 -20.66173,16.61021 -1.60345,1.07985 -2.83171,2.09872 -2.72948,2.26414 0.10224,0.16543 1.92419,1.5012 4.04878,2.96841 7.87824,5.44055 11.50376,9.42353 16.1653,17.75913 3.03979,5.43567 13.55379,29.42995 15.67297,35.76774 l 1.2701,3.79845 z"
   id="path13" /><path
   style="fill:#ffa500;fill-opacity:1;stroke-width:0.374804"
   d="m 347.69047,285.8705 c 1.14062,-6.5329 3.77975,-18.09444 5.40882,-23.69506 0.38974,-1.33992 3.67572,-21.32635 7.30217,-44.41428 3.62645,-23.08793 7.67698,-48.6402 9.00118,-56.78281 5.86568,-36.06871 6.08406,-40.63189 2.31366,-48.34643 -1.62812,-3.33125 -5.08526,-6.89217 -8.8803,-9.14687 -3.31268,-1.96811 -5.34253,-2.40746 -11.34316,-2.45515 -2.73765,-0.0217 -7.6793,1.35802 -9.07626,2.5342 -1.4761,1.24282 -3.09136,3.66727 -3.91658,5.87869 -1.73843,4.6586 -6.03942,19.18975 -6.26687,21.17304 -0.13025,1.13564 -0.38763,2.16385 -0.57195,2.28489 -0.18433,0.12104 -0.64879,1.47034 -1.03212,2.99843 -0.99874,3.98129 -3.45248,11.71173 -5.5811,17.58312 -2.0896,5.76377 -4.19069,13.23379 -5.11293,18.17799 -2.40709,12.9047 -16.46341,73.2243 -18.97819,81.44066 -2.16469,7.0726 -5.42517,15.92188 -7.0584,19.1573 -0.62385,1.23583 -0.98586,2.33867 -0.80448,2.45077 0.33861,0.20928 5.38648,0.65337 15.13083,1.33118 17.52224,1.21883 29.74287,4.47054 37.4568,9.96667 l 1.76546,1.25787 z"
   id="path14" /><path
   style="fill:#fce63c;fill-opacity:1;stroke-width:0.374804"
   d="m 220.18278,280.8237 c 1.21045,-0.60671 3.65604,-1.43189 5.43466,-1.83372 1.77862,-0.40184 6.35409,-1.47542 10.16772,-2.38575 6.40115,-1.52798 7.75457,-1.71565 17.6158,-2.44267 5.87505,-0.43314 14.66133,-0.81945 19.52506,-0.85846 l 8.84314,-0.0709 -0.54601,-1.31181 c -0.3003,-0.7215 -0.88663,-1.98132 -1.30295,-2.79961 -2.09456,-4.11689 -6.97048,-31.05326 -8.6863,-47.98634 -0.75771,-7.47765 -1.42586,-17.73838 -1.18089,-18.13475 0.10796,-0.17469 -0.0479,-5.62924 -0.34626,-12.12123 -0.7725,-16.80615 -2.79202,-34.31856 -5.98913,-51.93508 -1.26189,-6.95318 -1.60575,-9.67525 -3.37154,-26.68952 -0.88907,-8.56659 -1.23031,-12.841479 -2.07936,-26.048885 -0.52931,-8.23377 -1.32211,-15.161319 -2.05888,-17.990595 -1.74447,-6.698982 -6.6586,-13.009465 -12.21014,-15.679647 -7.14437,-3.436302 -11.35827,-3.021872 -17.84143,1.754671 -3.90823,2.879435 -6.69318,7.091947 -7.96705,12.050956 -0.30417,1.18408 -0.5172,4.97875 -0.57865,10.307112 -0.0535,4.6382 -0.30579,11.384673 -0.5607,14.992162 -0.66314,9.385146 -0.62289,22.126886 0.10952,34.669376 0.34909,5.97813 0.72897,14.57988 0.84418,19.11501 0.1152,4.53513 0.46251,10.85995 0.77181,14.05515 0.30929,3.1952 0.55113,9.01404 0.53742,12.93074 -0.0137,3.9167 0.2261,10.32585 0.53291,14.24255 0.69785,8.90872 1.9174,30.37783 2.42715,42.72767 0.21271,5.15355 0.46857,10.97239 0.56856,12.93074 0.24671,4.83171 -0.36133,15.18359 -1.26623,21.55763 -0.59054,4.1597 -2.64393,13.14673 -4.00205,17.51569 -0.25667,0.82569 -0.0803,0.78781 2.60964,-0.56045 z"
   id="path15" /><path
   style="fill:#fce63c;fill-opacity:1;stroke-width:0.374804"
   d="m 159.14976,319.63805 c 1.24346,-1.03564 3.68906,-3.4469 5.43466,-5.35835 1.74559,-1.91145 4.18578,-4.15575 5.42263,-4.98734 1.23685,-0.83159 3.68245,-2.64389 5.43466,-4.02734 8.48358,-6.69818 24.6629,-16.08046 31.01504,-17.98542 1.49453,-0.4482 2.71733,-0.86206 2.71733,-0.9197 0,-0.0576 -0.50864,-1.75718 -1.1303,-3.77675 -1.60743,-5.222 -4.81779,-16.94034 -7.33648,-26.77937 -1.18734,-4.63821 -2.26401,-8.51743 -2.39261,-8.6205 -0.31747,-0.25443 -0.51316,-0.95844 -5.20913,-18.7402 -6.69198,-25.33986 -10.07668,-36.98984 -11.10707,-38.23002 -0.2569,-0.30921 -0.83178,-3.26079 -1.27751,-6.55907 -3.21465,-23.78775 -10.33209,-45.35194 -21.87098,-66.26404 -1.69703,-3.07555 -3.76015,-6.27459 -4.58472,-7.10898 -2.98744,-3.02304 -9.19505,-4.8624 -13.77649,-4.08208 -3.52217,0.5999 -5.64191,1.70119 -8.54413,4.43899 -1.77796,1.67724 -2.8067,3.03153 -3.57254,4.70307 l -1.07555,2.34753 -0.13863,9.37991 -0.13862,9.37991 1.73719,11.60911 c 0.95546,6.38502 2.06304,12.95842 2.46129,14.60755 1.05734,4.37837 3.62335,19.3169 4.49068,26.1433 0.41256,3.24713 0.92987,9.23463 1.14959,13.30555 0.44564,8.25694 2.55083,23.46575 4.70188,33.96846 2.49701,12.19186 3.48646,17.31131 4.6447,24.03175 0.6395,3.71056 1.49131,8.1801 1.89291,9.93231 0.72974,3.18389 1.02106,4.95228 2.04166,12.39365 0.29875,2.1783 1.1278,5.99165 1.84233,8.47411 2.19236,7.61687 3.93559,17.74877 4.6264,26.88932 l 0.28096,3.71761 z"
   id="path16" /><path
   style="fill:#2e8b57;fill-opacity:1;stroke-width:0.374804"
   d="m 220.61003,280.51863 c 2.97021,-1.43088 18.45678,-5.07278 24.54524,-5.77217 6.95811,-0.79929 15.49838,-1.30874 26.46328,-1.57859 l 9.78451,-0.24081 -1.27555,-2.94341 c -2.09353,-4.83099 -4.928,-18.61586 -7.42417,-36.10591 -1.81834,-12.74067 -2.42144,-19.73502 -2.82783,-32.79536 -0.69996,-22.49499 -2.25569,-38.08882 -6.00193,-60.16056 -2.24033,-13.19933 -4.1689,-30.95963 -5.59569,-51.53105 -0.84974,-12.251544 -1.59038,-18.748439 -2.48349,-21.785298 -1.88019,-6.393253 -6.56137,-12.132254 -12.15816,-14.905572 -4.33391,-2.147539 -7.35055,-2.655014 -10.52919,-1.771276 -5.32123,1.479435 -10.48463,5.916384 -13.04796,11.212226 -1.77173,3.660391 -2.25702,6.636574 -2.26168,13.870308 -0.002,2.432969 -0.27378,9.685428 -0.60491,16.116573 -0.71686,13.922079 -0.38257,28.661819 1.35744,59.855319 0.20123,3.60749 0.54201,11.36593 0.75729,17.24099 0.21529,5.87505 0.72351,16.07909 1.12938,22.67564 2.34773,38.15685 2.90643,57.53506 1.92892,66.90253 -0.55258,5.29527 -1.82394,12.0276 -3.4609,18.32676 -0.61053,2.34938 -1.11006,4.33116 -1.11006,4.40395 0,0.26763 0.61256,0.047 2.81546,-1.01429 z"
   id="path17" /><path
   style="fill:#e87ce8;fill-opacity:1;stroke-width:0.374804"
   d="m 163.08341,315.53881 c 7.80384,-7.60555 16.91233,-14.38717 28.28039,-21.05585 5.46609,-3.2065 11.64603,-6.22818 14.84506,-7.2585 1.42473,-0.45886 2.59041,-0.95878 2.59041,-1.11093 0,-0.15215 -0.91824,-3.45002 -2.04054,-7.32861 -1.1223,-3.87858 -3.4808,-12.44915 -5.24112,-19.0457 -1.76031,-6.59655 -3.43981,-12.66838 -3.73221,-13.49295 -0.2924,-0.82457 -2.4185,-8.58301 -4.72466,-17.24099 -5.46587,-20.52044 -8.66963,-31.85321 -10.11883,-35.79378 -1.54339,-4.19667 -1.66636,-4.72789 -2.81979,-12.18114 -3.25346,-21.02345 -8.68807,-38.23114 -17.87421,-56.59541 -6.7894,-13.5729 -8.85663,-15.97283 -15.17636,-17.61891 -5.961,-1.55265 -11.30287,0.0956 -15.8327,4.88522 -3.43133,3.62813 -3.65787,4.5144 -3.89861,15.25207 l -0.20773,9.26485 1.66028,10.73409 c 0.91315,5.90376 2.25774,13.76521 2.98796,17.4699 1.58272,8.02964 3.76432,21.2737 4.27923,25.9783 0.20306,1.85528 0.63749,6.91513 0.96541,11.24412 1.00259,13.23557 2.19931,21.32067 6.18565,41.79065 4.01377,20.61078 5.19655,26.98984 6.39348,34.48198 0.60926,3.81363 1.85946,9.96978 2.77821,13.68034 1.99922,8.07422 3.34845,15.56363 3.95044,21.92825 0.24361,2.57557 0.55724,5.3538 0.69696,6.17385 l 0.25405,1.49102 z"
   id="path18" /><path
   style="fill:#e21fe2;fill-opacity:1;stroke-width:0.374804"
   d="m 113.74339,368.245 c 0.10883,-0.30922 0.86319,-2.81348 1.67633,-5.56502 1.04178,-3.52519 1.89853,-5.62853 2.9007,-7.12128 0.78223,-1.16516 4.1442,-4.81705 7.47105,-8.11533 3.32684,-3.29828 6.36412,-6.48355 6.74949,-7.07839 0.98447,-1.51955 7.49319,-6.90004 12.16682,-10.05782 2.16449,-1.46245 5.10541,-3.51509 6.53537,-4.5614 l 2.59993,-1.90239 -1.64343,-0.28056 c -4.32821,-0.73888 -17.07543,-11.49043 -23.10289,-19.48597 -1.04189,-1.38209 -2.78407,-3.21618 -3.87151,-4.07575 -3.32238,-2.62619 -7.2208,-6.50515 -9.76653,-9.71778 -1.33204,-1.68099 -4.75745,-5.95218 -7.61202,-9.49154 -2.85457,-3.53936 -5.77847,-7.31779 -6.49757,-8.39652 -0.71909,-1.07872 -2.49212,-3.187 -3.94008,-4.68505 -2.57439,-2.66346 -11.23081,-13.41603 -18.34604,-22.78853 -3.68741,-4.85722 -5.35431,-7.52011 -8.32094,-13.29276 -2.87967,-5.60344 -5.64866,-8.6472 -10.56435,-11.61263 -5.10391,-3.07898 -9.48573,-3.49756 -13.89422,-1.32726 -4.07192,2.0046 -7.68556,7.07217 -8.99032,12.60755 -0.80215,3.40309 -0.53042,9.1143 0.59537,12.51348 2.03936,6.15756 19.61379,37.24093 31.77952,56.20749 2.58303,4.02699 5.3693,8.4181 6.19172,9.75802 3.03063,4.93767 8.28069,10.81539 12.12892,13.57898 0.93562,0.67191 2.03947,1.88486 2.453,2.69544 0.41352,0.81057 1.54238,2.32946 2.50857,3.37529 6.82562,7.38832 11.27541,15.05896 15.02737,25.90444 1.06677,3.08363 2.24302,6.11259 2.61389,6.73102 0.37087,0.61842 0.93885,2.05205 1.26219,3.18583 0.7025,2.46334 1.58508,3.86377 1.88966,2.99844 z"
   id="path19" /><path
   style="fill:#00aeff;fill-opacity:1;stroke-width:0.749608"
   d="m 156.44158,312.02438 c -0.49755,-4.22591 -1.38351,-9.87608 -1.9688,-12.55593 -3.43825,-15.74259 -12.46496,-63.50098 -14.66408,-77.58444 -0.77254,-4.94742 -1.93385,-14.89846 -2.5807,-22.11344 -0.65178,-7.27002 -2.91539,-22.80932 -5.07758,-34.85678 -3.74222,-20.85116 -3.90216,-22.28949 -3.91776,-35.23158 -0.0153,-12.7028 0.08,-13.62792 1.62781,-15.79775 2.75891,-3.86765 7.31516,-6.53308 11.80385,-6.90532 9.02388,-0.74833 12.9159,2.87485 20.95517,19.50769 8.65301,17.90262 13.12176,31.83629 16.57595,51.68417 1.0537,6.05461 2.59462,12.96974 3.42427,15.36697 3.24275,9.36977 25.50422,91.90834 24.9228,92.40598 -0.33949,0.29057 -2.80986,1.45366 -5.48971,2.58464 -10.97208,4.63055 -27.76261,15.95156 -38.42114,25.90546 -3.10594,2.9006 -5.79078,5.27382 -5.9663,5.27382 -0.17553,0 -0.72623,-3.45757 -1.22378,-7.68349 z"
   id="path20" /><path
   style="fill:#fce63c;fill-opacity:1;stroke-width:0.749608"
   d="m 218.87456,278.79007 c 3.82413,-15.05912 3.79191,-14.73988 3.73808,-37.04145 -0.0284,-11.7501 -0.62169,-31.14622 -1.3185,-43.10247 -3.61567,-62.0392 -4.46478,-88.57918 -3.55843,-111.223276 0.7164,-17.898383 1.01685,-20.963711 2.35113,-23.98746 2.55574,-5.791856 7.85014,-10.473977 13.78051,-12.186856 5.69577,-1.645114 15.74842,4.623619 19.59853,12.221442 2.44241,4.819879 2.97054,7.908283 4.40052,25.733368 1.86918,23.300052 3.20323,35.123132 6.38588,56.595412 3.41643,23.04948 4.23907,31.59897 5.27173,54.78793 1.18937,26.70771 5.71883,57.62603 10.10962,69.00872 l 1.05498,2.73492 -11.0202,0.47311 c -18.762,0.80546 -28.29569,1.91618 -38.6141,4.49874 -5.43758,1.36095 -10.52731,2.74403 -11.31052,3.0735 -1.26997,0.53426 -1.364,0.36274 -0.86923,-1.58563 z"
   id="path21" /><path
   style="fill:#ff4500;fill-opacity:1;stroke-width:0.749608"
   d="m 343.80364,284.37088 c -7.21192,-4.58129 -19.26744,-7.35332 -38.86713,-8.93704 -6.28733,-0.50804 -11.43152,-1.00062 -11.43152,-1.09461 0,-0.094 0.8004,-1.98383 1.77868,-4.19963 3.39535,-7.6905 7.35247,-21.31857 12.49249,-43.02334 4.53374,-19.14466 11.59981,-50.47044 13.10085,-58.07963 0.28465,-1.44299 2.4661,-8.69545 4.84766,-16.11657 2.38156,-7.42112 4.85395,-15.34823 5.4942,-17.61579 7.23344,-25.61861 9.13782,-30.37856 12.88467,-32.20488 1.23685,-0.60288 4.69945,-1.23032 7.69466,-1.39432 4.73545,-0.25927 5.97872,-0.0375 9.53085,1.70045 4.93013,2.41208 9.59862,7.49976 11.2033,12.20925 2.46193,7.22537 2.25892,9.02923 -9.00696,80.03295 -10.20879,64.34136 -9.68175,61.26518 -12.65048,73.8364 -1.41175,5.97813 -2.8382,12.24467 -3.16988,13.92566 l -0.60306,3.05634 z"
   id="path22" /></svg>
